<?xml version="1.0" encoding="UTF-8" standalone="no"?><!DOCTYPE svg PUBLIC "-//W3C//DTD SVG 1.1//EN" "http://www.w3.org/Graphics/SVG/1.1/DTD/svg11.dtd"><svg width="100%" height="100%" viewBox="0 0 64 64" version="1.1" xmlns="http://www.w3.org/2000/svg" xmlns:xlink="http://www.w3.org/1999/xlink" xml:space="preserve" style="fill-rule:evenodd;clip-rule:evenodd;stroke-linejoin:round;stroke-miterlimit:1.41421;"><g id="naira"><path id="naira-sign" d="M30.858,20.28l16.665,0l0,-2.521c0,-3.84 -0.568,-6.339 -1.704,-7.498c-0.75,-0.75 -2.409,-1.239 -4.976,-1.466l0,-1.295l16.394,0l0,1.295c-2.037,0.209 -3.553,0.638 -4.55,1.287l-0.185,10.198l6.985,0l0,2.917l-7.038,0l-0.193,10.622l7.231,0l0,2.918l-7.284,0l-0.322,17.695l-1.291,0.026l0,0.042l-1.192,0l-14.331,-17.763l-16.548,0l0,6.686c0,3.817 0.556,6.305 1.67,7.464c0.727,0.75 2.351,1.261 4.874,1.534l0,1.261l-16.394,0l0,-1.261c2.535,-0.26 4.273,-0.795 5.212,-1.608l0,-14.076l-7.368,0l0,-2.918l7.368,0l0,-10.622l-7.368,0l0,-2.917l7.368,0l0,-9.448c-0.76,-0.803 -1.424,-1.318 -1.991,-1.543c-0.716,-0.284 -1.79,-0.448 -3.221,-0.494l0,-1.295l11.963,0l10.226,12.78Zm16.665,16.457l-3.496,0l3.496,4.369l0,-4.369Zm-14.33,-13.54l8.5,10.622l5.83,0l0,-10.622l-14.33,0Zm-14.674,0l0,10.622l14.194,0l-8.569,-10.622l-5.625,0Zm0,-2.917l3.271,0l-3.271,-4.055l0,4.055Z" style="fill:#2b2b2b;"/></g></svg>