<?xml version="1.0" encoding="UTF-8" standalone="no"?><!DOCTYPE svg PUBLIC "-//W3C//DTD SVG 1.1//EN" "http://www.w3.org/Graphics/SVG/1.1/DTD/svg11.dtd"><svg width="100%" height="100%" viewBox="0 0 64 64" version="1.1" xmlns="http://www.w3.org/2000/svg" xmlns:xlink="http://www.w3.org/1999/xlink" xml:space="preserve" style="fill-rule:evenodd;clip-rule:evenodd;stroke-linejoin:round;stroke-miterlimit:1.41421;"><g id="national-theater"><g id="roof"><path d="M50.581,37.628c-11.557,-6.06 -24.391,-6.043 -36.168,0.017l0.162,0.529c11.813,-5.446 24.343,-5.425 35.863,0.031l0.143,-0.577Z" style="fill:#c5c5c5;"/><path d="M50,38c-11.557,-5.511 -23.224,-5.511 -35,0l2,4.464l31,0.109l2,-4.573Z" style="fill:#1a1a1a;"/><g id="spines-and-crossbeams"><g><g><path d="M34.499,40l-1.995,0.18l-1.993,-0.18l0,1l2.02,-0.165l1.968,0.165l0,-1Z" style="fill:#efefef;"/><path d="M34.499,40.498l-3.988,0.002l0,0.5l2.02,-0.165l1.968,0.165l0,-0.502Z" style="fill:#c1c1c1;"/></g><g><path d="M34.499,38.019l-1.995,0.177l-1.993,-0.177l0,0.981l2.02,-0.162l1.968,0.162l0,-0.981Z" style="fill:#efefef;"/><path d="M34.499,38.508l-3.988,0.002l0,0.49l2.02,-0.162l1.968,0.162l0,-0.492Z" style="fill:#c1c1c1;"/></g></g><g><g><path d="M30.502,40l-1.996,0.18l-1.992,-0.18l0,1l2.019,-0.165l1.969,0.165l0,-1Z" style="fill:#efefef;"/><path d="M30.502,40.498l-3.988,0.002l0,0.5l2.019,-0.165l1.969,0.165l0,-0.502Z" style="fill:#c1c1c1;"/></g><g><path d="M30.502,38.019l-1.996,0.177l-1.992,-0.177l0,0.981l2.019,-0.162l1.969,0.162l0,-0.981Z" style="fill:#efefef;"/><path d="M30.502,38.508l-3.988,0.002l0,0.49l2.019,-0.162l1.969,0.162l0,-0.492Z" style="fill:#c1c1c1;"/></g></g><g><g><path d="M26.372,39.977l-1.979,0.31l-2,-0.049l0.065,0.997l2.005,-0.296l1.974,0.036l-0.065,-0.998Z" style="fill:#efefef;"/><path d="M26.404,40.474l-3.979,0.263l0.033,0.498l2.005,-0.296l1.974,0.036l-0.033,-0.501Z" style="fill:#c1c1c1;"/></g><g><path d="M26.242,38l-1.979,0.307l-2,-0.046l0.064,0.979l2.005,-0.294l1.974,0.033l-0.064,-0.979Z" style="fill:#efefef;"/><path d="M26.274,38.488l-3.979,0.263l0.032,0.489l2.005,-0.294l1.974,0.033l-0.032,-0.491Z" style="fill:#c1c1c1;"/></g></g><g><g><path d="M19.343,40.619l-1.925,0.587l-1.546,0.148l0.284,0.919l1.435,-0.428l1.959,-0.248l-0.207,-0.978Z" style="fill:#efefef;"/><path d="M19.446,41.107l-3.416,0.711l0.195,0.479l1.366,-0.452l1.959,-0.248l-0.104,-0.49Z" style="fill:#c1c1c1;"/></g><g><path d="M18.932,38.681l-1.915,0.587l-1.64,0.194l0.23,0.911l1.569,-0.482l1.959,-0.25l-0.203,-0.96Z" style="fill:#efefef;"/><path d="M19.033,39.159l-3.533,0.732l0.149,0.48l1.527,-0.48l1.959,-0.25l-0.102,-0.482Z" style="fill:#c1c1c1;"/></g></g><g><g><path d="M45.618,40.635l1.925,0.586l1.546,0.149l-0.284,0.918l-1.435,-0.428l-1.959,-0.247l0.207,-0.978Z" style="fill:#efefef;"/><path d="M45.515,41.122l3.415,0.711l-0.194,0.48l-1.366,-0.453l-1.959,-0.247l0.104,-0.491Z" style="fill:#c1c1c1;"/></g><g><path d="M46.029,38.697l1.915,0.587l1.64,0.194l-0.23,0.911l-1.569,-0.482l-1.959,-0.25l0.203,-0.96Z" style="fill:#efefef;"/><path d="M45.928,39.175l3.533,0.732l-0.149,0.479l-1.527,-0.479l-1.959,-0.25l0.102,-0.482Z" style="fill:#c1c1c1;"/></g></g><g><g><path d="M38.488,40l-1.995,0.18l-1.993,-0.18l0,1l2.02,-0.165l1.968,0.165l0,-1Z" style="fill:#efefef;"/><path d="M38.488,40.498l-3.988,0.002l0,0.5l2.02,-0.165l1.968,0.165l0,-0.502Z" style="fill:#c1c1c1;"/></g><g><path d="M38.488,38.019l-1.995,0.177l-1.993,-0.177l0,0.981l2.02,-0.162l1.968,0.162l0,-0.981Z" style="fill:#efefef;"/><path d="M38.488,38.508l-3.988,0.002l0,0.49l2.02,-0.162l1.968,0.162l0,-0.492Z" style="fill:#c1c1c1;"/></g></g><g><g><path d="M42.638,40.235l-2.003,0.051l-1.977,-0.309l-0.064,0.998l2.026,-0.034l1.953,0.292l0.065,-0.998Z" style="fill:#efefef;"/><path d="M42.606,40.733l-3.98,-0.257l-0.032,0.499l2.026,-0.034l1.953,0.292l0.033,-0.5Z" style="fill:#c1c1c1;"/></g><g><path d="M42.766,38.259l-2.002,0.047l-1.977,-0.306l-0.064,0.979l2.026,-0.03l1.954,0.289l0.063,-0.979Z" style="fill:#efefef;"/><path d="M42.735,38.746l-3.98,-0.256l-0.032,0.489l2.026,-0.03l1.954,0.289l0.032,-0.492Z" style="fill:#c1c1c1;"/></g></g><g><g><path d="M46.304,40.652l-1.653,0.032l-1.977,-0.309l-0.065,0.998l2.026,-0.034l1.477,0.263l0.192,-0.95Z" style="fill:#efefef;"/><path d="M46.211,41.141l-3.57,-0.267l-0.032,0.499l2.026,-0.034l1.466,0.239l0.11,-0.437Z" style="fill:#c1c1c1;"/></g><g><path d="M46.599,38.672l-1.819,0.032l-1.978,-0.306l-0.063,0.979l2.026,-0.03l1.695,0.3l0.139,-0.975Z" style="fill:#efefef;"/><path d="M46.512,39.141l-3.741,-0.253l-0.032,0.489l2.026,-0.03l1.63,0.283l0.117,-0.489Z" style="fill:#c1c1c1;"/></g></g><g><g><path d="M18.837,40.652l1.653,0.032l1.976,-0.309l0.065,0.998l-2.026,-0.034l-1.477,0.263l-0.191,-0.95Z" style="fill:#efefef;"/><path d="M18.93,41.141l3.569,-0.267l0.032,0.499l-2.026,-0.034l-1.466,0.239l-0.109,-0.437Z" style="fill:#c1c1c1;"/></g><g><path d="M18.542,38.672l1.819,0.032l1.977,-0.306l0.064,0.979l-2.026,-0.03l-1.696,0.3l-0.138,-0.975Z" style="fill:#efefef;"/><path d="M18.628,39.141l3.742,-0.253l0.032,0.489l-2.026,-0.03l-1.631,0.283l-0.117,-0.489Z" style="fill:#c1c1c1;"/></g></g><path d="M34.985,32l-0.617,0l-0.37,10.113l1,0l-0.013,-10.113Z" style="fill:#efefef;"/><path d="M39.28,33l-0.617,0l-0.663,9.157l1,0l0.28,-9.157Z" style="fill:#efefef;"/><path d="M43.85,34l-0.617,0l-1.239,8.47l1,0l0.856,-8.47Z" style="fill:#efefef;"/><path d="M47.308,35l-0.617,0l-1.701,7.527l1,0l1.318,-7.527Z" style="fill:#efefef;"/><path d="M50.408,37l-0.617,0l-1.801,5.408l1,0l1.418,-5.408Z" style="fill:#efefef;"/><path d="M21.919,34l-0.616,0l0.722,8.192l1,0l-1.106,-8.192Z" style="fill:#efefef;"/><path d="M18.308,35l-0.617,0l1.385,7.513l1,0l-1.768,-7.513Z" style="fill:#efefef;"/><path d="M15.247,37l-0.617,0l1.496,5.405l1,0l-1.879,-5.405Z" style="fill:#efefef;"/><path d="M30.603,32l-0.617,0l0.017,10.138l1,0l-0.4,-10.138Z" style="fill:#efefef;"/><path d="M26.358,33l-0.617,0l0.265,9.123l1,0l-0.648,-9.123Z" style="fill:#efefef;"/></g></g><g><rect x="3" y="45.7" width="58" height="3.3" style="fill:#646464;"/><g><rect x="3" y="46.739" width="4.4" height="2.261" style="fill:#8e8e8e;"/><rect x="12.613" y="46.739" width="4.235" height="2.261" style="fill:#8e8e8e;"/><rect x="7.559" y="46.739" width="4.884" height="2.261" style="fill:#8e8e8e;"/></g><g><rect x="47.141" y="46.737" width="4.259" height="2.263" style="fill:#8e8e8e;"/><rect x="56.613" y="46.737" width="4.387" height="2.263" style="fill:#8e8e8e;"/><rect x="51.559" y="46.737" width="4.884" height="2.263" style="fill:#8e8e8e;"/></g><rect x="16.714" y="46" width="30.445" height="3" style="fill:#797878;"/><rect x="2" y="44" width="60" height="2.743" style="fill:#777;"/><g><rect x="2" y="44" width="4.85" height="2.741" style="fill:#dddcdc;"/><rect x="12.149" y="44" width="4.851" height="2.741" style="fill:#dddcdc;"/><rect x="7" y="44" width="5" height="2.741" style="fill:#dddcdc;"/></g><g><rect x="57.152" y="44" width="4.848" height="2.73" style="fill:#dddcdc;"/><rect x="47" y="44" width="4.84" height="2.73" style="fill:#dddcdc;"/><rect x="52" y="44" width="5" height="2.73" style="fill:#dddcdc;"/></g><rect x="21" y="44" width="22" height="1" style="fill:#d5d9d4;"/><path d="M44,46l-24,0l0,1l-3,2l30,0l-3,-2l0,-1Z" style="fill:#d5d9d4;"/><path d="M44,46l-24,0l0,1l24,0l0,-1Z" style="fill:#bababa;"/><g id="entrance"><path d="M36,47.279l-8,0l-1,1.721l10,0l-1,-1.721Z" style="fill:#2b2b2b;"/><rect x="28" y="47.279" width="8" height="1.721" style="fill:#1e1e1e;"/></g><rect x="6" y="43.26" width="52" height="0.74"/><rect x="16.714" y="43.79" width="30.535" height="2.693" style="fill:#f6f6f6;"/><path d="M59,42.659c-17.978,-0.879 -35.978,-0.879 -54,0l0,0.595l54,0l0,-0.595Z" style="fill:#d5d9d4;"/></g></g></svg>