<?xml version="1.0" encoding="UTF-8" standalone="no"?><!DOCTYPE svg PUBLIC "-//W3C//DTD SVG 1.1//EN" "http://www.w3.org/Graphics/SVG/1.1/DTD/svg11.dtd"><svg width="100%" height="100%" viewBox="0 0 64 64" version="1.1" xmlns="http://www.w3.org/2000/svg" xmlns:xlink="http://www.w3.org/1999/xlink" xml:space="preserve" style="fill-rule:evenodd;clip-rule:evenodd;stroke-linecap:round;stroke-linejoin:round;stroke-miterlimit:1.5;"><g id="Danfo-Icon"><rect id="road" x="15.9" y="47.389" width="32.639" height="0.7" style="fill:#101010;"/><g id="tire-system"><rect id="left-tire" x="17.895" y="42.587" width="3.505" height="4.943" style="fill:#101010;"/><rect id="right-tire" x="42.58" y="42.575" width="3.5" height="4.826" style="fill:#101010;"/><path id="bottom-cylinder" d="M37.229,42.518l-10,0l0,0.759c0,0.14 0.114,0.253 0.253,0.253l9.494,0c0.14,0 0.253,-0.113 0.253,-0.253l0,-0.759Z" style="fill:#101010;"/><path d="M21.378,42.452l0,1.548l1.545,-1.546l-1.545,-0.002Z"/><path d="M42.602,42.452l0,1.548l-1.545,-1.546l1.545,-0.002Z"/></g><g id="front-bonnet-group"><path id="front" d="M46.378,28l-28.735,0l-1.043,3.17l0.009,8.333l30.795,-0.004l-0.012,-8.358l-1.014,-3.141Z" style="fill:#d49e32;"/><path id="lower-grill-vent" d="M42.57,36.645c0,-0.048 -0.04,-0.088 -0.089,-0.088l-21.366,0c-0.048,0 -0.088,0.04 -0.088,0.088l0,2.864l21.543,0l0,-2.864Z" style="fill:#101010;"/><g id="grill-group"><path id="main-grill" d="M46,31.552c0,-0.104 -0.085,-0.189 -0.189,-0.189l-27.622,0c-0.104,0 -0.189,0.085 -0.189,0.189l0,3.397c0,0.104 0.085,0.189 0.189,0.189l27.622,0c0.104,0 0.189,-0.085 0.189,-0.189l0,-3.397Z" style="fill:#101010;"/><g id="headlights"><circle cx="20" cy="33.25" r="1.592" style="fill:#fff;"/><circle cx="44" cy="33.25" r="1.592" style="fill:#fff;"/></g><circle id="VW-badge" cx="32" cy="33.25" r="1.159" style="fill:#fff;"/></g><g id="bumper-group"><path id="front-bumper" d="M48.459,40.415c0,-0.497 -0.404,-0.9 -0.9,-0.9l-30.659,0c-0.497,0 -0.9,0.403 -0.9,0.9l0,1.2c0,0.496 0.403,0.9 0.9,0.9l30.659,0c0.496,0 0.9,-0.404 0.9,-0.9l0,-1.2Z" style="fill:none;stroke:#000;stroke-width:0.15px;"/><g id="bumper-design-left"><rect x="16" y="40.302" width="8" height="1.425" style="fill:#101010;"/><rect x="24" y="41" width="3.152" height="0.359"/></g><g id="bumper-design-right"><rect x="40.453" y="40.302" width="8" height="1.425" style="fill:#101010;"/><rect x="37.306" y="41" width="3.152" height="0.359"/></g></g><g id="indicators"><path d="M47.398,37l-1.04,0c-0.191,0 -0.347,0.155 -0.347,0.347l0,1.306c0,0.192 0.156,0.347 0.347,0.347l1.04,0l0,-2Z" style="fill:#cf5a18;"/><path d="M16.613,37l1.04,0c0.192,0 0.347,0.155 0.347,0.347l0,1.306c0,0.192 -0.155,0.347 -0.347,0.347l-1.04,0l0,-2Z" style="fill:#cf5a18;"/></g><g id="black-stripes"><g><g><g id="black-stripes1"><g id="black-stripes2"><path d="M31.882,27.485l-0.405,0.001l-0.121,2.808l0.036,1.087l0.416,-0.003l-0.006,-1.084l0.08,-2.809Z"/></g></g></g></g><g><g><g id="black-stripes3"><g id="black-stripes4"><path d="M32.122,27.485l0.405,0.001l0.121,2.808l-0.036,1.087l-0.416,-0.003l0.006,-1.084l-0.08,-2.809Z"/></g></g></g></g></g></g><g id="roof-and-screen-group"><g id="mirror-and-lower-windscreen"><path id="left-side-mirror" d="M17.603,24.655l-2.326,0c-0.175,0 -0.317,0.143 -0.317,0.318l0,2.709c0,0.175 0.142,0.317 0.317,0.317l2.326,0l0,-3.344Z"/><rect id="connecting-bar" x="17.589" y="27.572" width="28.773" height="0.425"/><path id="right-side-mirror" d="M46.358,24.657l2.325,0c0.175,0 0.317,0.142 0.317,0.317l0,2.709c0,0.175 -0.142,0.317 -0.317,0.317l-2.325,0l0,-3.343Z"/></g><path id="inner-roof" d="M20.414,22c6.107,1.183 13.941,1.224 22.852,0l-0.266,-1.574l-22.339,-0.046l-0.247,1.62Z" style="fill:#010100;"/><path id="windscreen" d="M46.374,28l-28.748,0l2.868,-7.695l22.485,0l3.395,7.695Zm-25.498,-7.145l-2.458,6.595l27.112,0l-2.91,-6.595l-21.744,0Z" style="fill:#d49e32;"/><path id="roof" d="M42.333,18.358l-21.015,-0.069l-0.808,2.028l22.49,0.025l-0.667,-1.984Z" style="fill:#d49e32;"/><g id="left-seat"><path d="M27.089,24.001l0.025,0.002l0.025,0.003l0.025,0.004l0.024,0.006l0.023,0.006l0.024,0.008l0.022,0.009l0.023,0.01l0.021,0.011l0.021,0.012l0.02,0.013l0.02,0.014l0.019,0.015l0.018,0.016l0.017,0.017l0.017,0.017l0.016,0.018l0.014,0.019l0.014,0.02l0.013,0.02l0.012,0.021l0.012,0.021l0.01,0.022l0.008,0.023l0.008,0.023l0.007,0.024l0.006,0.024l0.004,0.025l0.003,0.025l0.002,0.025l0.001,0.026l0,1.5l-3.925,0l0,-1.5l0.001,-0.026l0.002,-0.025l0.003,-0.025l0.004,-0.025l0.006,-0.024l0.006,-0.024l0.008,-0.023l0.009,-0.023l0.01,-0.022l0.011,-0.021l0.012,-0.021l0.013,-0.02l0.014,-0.02l0.015,-0.019l0.016,-0.018l0.017,-0.017l0.017,-0.017l0.018,-0.016l0.019,-0.015l0.02,-0.014l0.02,-0.013l0.021,-0.012l0.021,-0.011l0.022,-0.01l0.023,-0.009l0.023,-0.008l0.024,-0.006l0.024,-0.006l0.025,-0.004l0.025,-0.003l0.025,-0.002l0.026,-0.001l2.925,0l0.026,0.001Zm-2.946,0.399l-0.01,0l-0.006,0.001l-0.005,0l-0.004,0.001l-0.005,0.001l-0.005,0.002l-0.004,0.001l-0.005,0.002l-0.004,0.002l-0.004,0.002l-0.004,0.002l-0.004,0.003l-0.004,0.003l-0.004,0.003l-0.004,0.003l-0.004,0.003l-0.003,0.004l-0.003,0.004l-0.003,0.004l-0.003,0.004l-0.003,0.004l-0.002,0.004l-0.002,0.004l-0.002,0.004l-0.002,0.005l-0.001,0.004l-0.002,0.005l-0.001,0.005l-0.001,0.004l0,0.005l-0.001,0.005l0,0.011l0,1.095l3.125,0l0,-1.095l0,-0.01l-0.001,-0.006l0,-0.005l-0.001,-0.004l-0.001,-0.005l-0.002,-0.005l-0.001,-0.004l-0.002,-0.005l-0.002,-0.004l-0.002,-0.004l-0.002,-0.004l-0.003,-0.005l-0.003,-0.003l-0.003,-0.004l-0.003,-0.004l-0.004,-0.004l-0.003,-0.003l-0.004,-0.003l-0.004,-0.003l-0.004,-0.003l-0.004,-0.003l-0.004,-0.002l-0.004,-0.002l-0.005,-0.002l-0.004,-0.002l-0.004,-0.001l-0.005,-0.002l-0.005,-0.001l-0.005,-0.001l-0.005,0l-0.005,-0.001l-0.01,0l-2.915,0Z" style="fill:#101010;"/><path d="M28.1,26.178c0,-0.096 -0.078,-0.175 -0.174,-0.175l-4.651,0c-0.096,0 -0.175,0.079 -0.175,0.175l0,1.282l5,0l0,-1.282Z"/></g><g id="right-seat"><path d="M39.871,24.001l0.025,0.002l0.025,0.003l0.025,0.004l0.024,0.006l0.024,0.006l0.023,0.008l0.022,0.009l0.023,0.01l0.021,0.011l0.021,0.012l0.02,0.013l0.02,0.014l0.019,0.015l0.018,0.016l0.017,0.017l0.017,0.017l0.016,0.018l0.015,0.019l0.014,0.02l0.013,0.02l0.012,0.021l0.011,0.021l0.01,0.022l0.009,0.023l0.007,0.023l0.007,0.024l0.006,0.024l0.004,0.025l0.003,0.025l0.002,0.025l0.001,0.026l0,1.5l-3.925,0l0,-1.5l0.001,-0.026l0.002,-0.025l0.003,-0.025l0.004,-0.025l0.006,-0.024l0.007,-0.024l0.007,-0.023l0.009,-0.023l0.01,-0.022l0.011,-0.021l0.013,-0.021l0.013,-0.02l0.013,-0.02l0.015,-0.019l0.016,-0.018l0.017,-0.017l0.017,-0.017l0.018,-0.016l0.019,-0.015l0.02,-0.014l0.02,-0.013l0.021,-0.012l0.021,-0.011l0.023,-0.01l0.022,-0.009l0.023,-0.008l0.024,-0.006l0.024,-0.006l0.025,-0.004l0.025,-0.003l0.025,-0.002l0.026,-0.001l2.925,0l0.026,0.001Zm-2.946,0.399l-0.01,0l-0.006,0.001l-0.005,0l-0.004,0.001l-0.005,0.001l-0.005,0.002l-0.004,0.001l-0.004,0.002l-0.005,0.002l-0.004,0.002l-0.004,0.002l-0.004,0.003l-0.004,0.003l-0.004,0.003l-0.004,0.003l-0.004,0.003l-0.003,0.004l-0.003,0.004l-0.003,0.004l-0.003,0.004l-0.003,0.004l-0.002,0.004l-0.002,0.004l-0.002,0.004l-0.002,0.005l-0.001,0.004l-0.002,0.005l-0.001,0.005l-0.001,0.004l0,0.005l-0.001,0.006l0,0.01l0,1.095l3.125,0l0,-1.095l0,-0.01l-0.001,-0.006l0,-0.005l-0.001,-0.004l-0.001,-0.005l-0.002,-0.005l-0.001,-0.004l-0.002,-0.005l-0.002,-0.004l-0.002,-0.004l-0.002,-0.004l-0.003,-0.004l-0.003,-0.004l-0.003,-0.004l-0.003,-0.004l-0.004,-0.004l-0.003,-0.003l-0.004,-0.003l-0.004,-0.003l-0.004,-0.003l-0.004,-0.003l-0.004,-0.002l-0.004,-0.002l-0.004,-0.002l-0.005,-0.002l-0.004,-0.001l-0.005,-0.002l-0.005,-0.001l-0.004,-0.001l-0.005,0l-0.006,-0.001l-0.01,0l-2.915,0Z" style="fill:#101010;"/><path d="M40.883,26.172c0,-0.097 -0.079,-0.175 -0.176,-0.175l-4.649,0c-0.097,0 -0.175,0.078 -0.175,0.175l0,1.288l5,0l0,-1.288Z"/></g></g></g></svg>